<?xml version="1.0" encoding="UTF-8"?>
<svg width="512" height="512" version="1.1" viewBox="0 0 512 512" xmlns="http://www.w3.org/2000/svg"><defs><mask id="mask187" maskUnits="userSpaceOnUse"><circle cx="256" cy="256" r="256" fill="#fff"/></mask></defs><path d="m0 0h512v512h-512z" fill="#338af3" mask="url(#mask187)"/><path d="m256 66c-104.6 0-190 85.401-190 190s85.401 190 190 190 190-85.401 190-190-85.401-190-190-190zm0 50.667c6.5312 0 12.766 0.5928 19 1.3857 4.8491 6.6302 9.6979 15.042 13.953 26.025 2.6719 7.0259 5.1457 14.844 7.3228 23.255h-80.552c2.1761-8.4114 4.651-16.229 7.3228-23.255 4.2552-10.984 9.1043-19.396 13.953-26.025 6.2343-0.7904 12.469-1.3857 19-1.3857zm-52.843 10.292c-1.2869 2.771-2.6719 5.1457-3.7605 8.0157-3.7605 9.7969-6.8281 20.781-9.599 32.358h-40.969c14.448-17.516 32.855-31.568 54.327-40.376zm105.69 0c21.474 8.8074 39.88 22.859 54.327 40.376h-40.969c-2.771-11.578-5.8386-22.562-9.599-32.358-1.0893-2.8698-2.4751-5.2448-3.7605-8.0157zm-176.84 65.71h52.744c-2.4751 15.932-3.7605 32.954-4.2552 50.667h-62.839c1.5833-18.109 6.4324-35.229 14.349-50.667zm78.376 0h91.241c2.5729 15.635 3.9583 32.756 4.5522 50.667h-100.34c0.5928-17.911 1.9785-35.031 4.5522-50.667zm116.87 0h52.744c7.9167 15.438 12.766 32.558 14.349 50.667h-62.839c-0.494-17.714-1.7809-34.735-4.2552-50.667zm-209.59 76h62.839c0.494 17.714 1.7809 34.833 4.2552 50.667h-52.744c-7.9167-15.438-12.766-32.558-14.349-50.667zm88.173 0h100.34c-0.5928 17.911-1.9785 35.031-4.5521 50.667h-91.241c-2.5728-15.635-3.9583-32.756-4.5521-50.667zm125.68 0h62.839c-1.5833 18.109-6.4324 35.229-14.349 50.667h-52.744c2.4751-15.833 3.7605-32.954 4.2552-50.667zm-182.68 76h40.969c2.771 11.578 5.8386 22.562 9.599 32.259 1.0893 2.9688 2.4751 5.3438 3.7605 8.1145-21.474-8.8074-39.88-22.859-54.327-40.376zm66.895 0h80.552c-2.1761 8.4114-4.6509 16.229-7.3228 23.255-4.2552 10.984-9.1043 19.396-13.953 26.025-6.2343 0.7904-12.568 1.3857-19 1.3857-6.4324 0-12.766-0.5928-19-1.3857-4.8491-6.6302-9.6979-15.042-13.953-26.025-2.6719-7.026-5.1457-14.844-7.3228-23.255zm106.48 0h40.969c-14.448 17.516-32.855 31.568-54.327 40.376 1.2869-2.771 2.6719-5.1457 3.7605-8.1145 3.7605-9.6978 6.8281-20.682 9.599-32.259z" fill="#eee"/></svg>
