<?xml version="1.0" encoding="UTF-8" standalone="no"?>
<svg
   xmlns:dc="http://purl.org/dc/elements/1.1/"
   xmlns:cc="http://creativecommons.org/ns#"
   xmlns:rdf="http://www.w3.org/1999/02/22-rdf-syntax-ns#"
   xmlns:svg="http://www.w3.org/2000/svg"
   xmlns="http://www.w3.org/2000/svg"
   id="svg19258"
   version="1.1"
   viewBox="0 0 152 21.999922"
   height="21.999922"
   width="152">
  <defs
     id="defs19252" />
  <metadata
     id="metadata19255">
    <rdf:RDF>
      <cc:Work
         rdf:about="">
        <dc:format>image/svg+xml</dc:format>
        <dc:type
           rdf:resource="http://purl.org/dc/dcmitype/StillImage" />
        <dc:title></dc:title>
      </cc:Work>
    </rdf:RDF>
  </metadata>
  <g
     transform="translate(-13,-411.51956)"
     id="layer1">
    <rect
       ry="6"
       rx="6"
       y="411.51956"
       x="13"
       height="21.999922"
       width="152"
       id="rect2497"
       style="opacity:1;vector-effect:none;fill:#2ec27e;fill-opacity:1;stroke:none;stroke-width:30.93985558;stroke-linecap:round;stroke-linejoin:round;stroke-miterlimit:4;stroke-dasharray:none;stroke-dashoffset:0;stroke-opacity:1" />
    <path
       id="path871"
       d="m 47.847656,417.97269 v 6.76757 c 0,1.332 0.540219,1.89649 1.824219,1.89649 0.444,0 0.960047,-0.12078 1.248047,-0.30078 l 0.130859,-1.25977 c -0.216,0.072 -0.371328,0.10938 -0.611328,0.10938 -0.42,0 -0.552734,-0.21614 -0.552734,-0.74414 v -6.46875 z m 77.250004,0 v 8.54492 h 2.04101 v -3.15625 c 0,-1.008 0.49208,-1.41602 1.08008,-1.41602 0.504,0 0.85156,0.28667 0.85156,1.13867 v 3.4336 h 2.03907 v -3.9961 c 0,-1.392 -0.83822,-2.125 -2.07422,-2.125 -0.864,0 -1.53649,0.40889 -1.89649,1.21289 v -3.63671 z m -18.71289,0.26367 c -0.708,0 -1.19922,0.3969 -1.19922,1.1289 0,0.696 0.52781,1.00782 1.00781,1.00782 0.168,0 0.27537,-0.0368 0.35937,-0.13282 l 0.0606,0.0371 c -0.216,0.576 -0.768,1.00721 -1.5,1.28321 l 0.90039,0.63671 c 1.116,-0.48 1.66797,-1.40382 1.66797,-2.42382 0,-0.852 -0.40887,-1.53711 -1.29687,-1.53711 z M 40,418.59769 v 7.91992 h 2.064453 v -2.74805 h 1.572266 c 1.968,0 3.058593,-0.92492 3.058593,-2.54492 0,-1.704 -1.090593,-2.62695 -3.058593,-2.62695 z m 42.632812,0 v 7.91992 h 3.359376 c 2.483999,0 3.839843,-1.42894 3.839843,-3.96094 0,-2.532 -1.355843,-3.95898 -3.839843,-3.95898 z m 34.298828,0 v 1.5957 h 2.5918 v 6.32422 h 2.06445 v -6.32422 h 2.58008 v -1.5957 z m -5.50976,0.0117 -2.03907,0.5625 v 1.34571 h -1.0332 v 1.45117 h 1.0332 v 2.74805 c 0.012,1.392 0.85103,1.91992 2.20703,1.91992 0.624,0 1.29736,-0.17908 1.69336,-0.45508 l -0.20508,-1.26172 c -0.23999,0.168 -0.49128,0.26563 -0.86328,0.26563 -0.504,0 -0.79296,-0.22869 -0.79296,-0.80469 v -2.41211 h 1.80078 v -1.45117 h -1.80078 z m -69.357427,1.54688 H 43.3125 c 0.912,0 1.306641,0.34892 1.306641,1.04492 0,0.708 -0.394641,1.05469 -1.306641,1.05469 h -1.248047 z m 42.632813,0 h 1.091796 c 1.344,0 1.931641,0.81639 1.931641,2.40039 0,1.584 -0.58764,2.40039 -1.931641,2.40039 h -1.091796 z m -30.06836,0.24023 c -2.004,0 -3.130859,1.1411 -3.130859,3.1211 0,1.98 1.140234,3.11914 3.240234,3.11914 1.392,0 2.411766,-0.52827 2.759766,-1.57227 l -1.65625,-0.52734 c -0.132,0.42 -0.503516,0.66015 -1.103516,0.66015 -0.684,0 -1.127765,-0.31179 -1.259765,-1.09179 h 4.091796 c 0.036,-0.156 0.05859,-0.46788 0.05859,-0.67188 0,-1.896 -1.044,-3.03711 -3,-3.03711 z m 6.636719,0 c -1.632,0 -2.567484,0.70766 -2.771484,1.84766 l 1.65625,0.48047 c 0.12,-0.696 0.539234,-0.92383 1.115234,-0.92383 0.54,0 0.851563,0.34867 0.851563,0.88867 v 0.21485 l -1.355469,0.26367 c -1.704,0.336 -2.339844,0.97275 -2.339844,1.96875 0,0.972 0.671375,1.5 1.859375,1.5 1.104,0 1.800719,-0.34783 2.136719,-0.92383 0.18,0.648 0.744828,0.92383 1.548828,0.92383 0.3,0 0.574453,-0.0594 0.814453,-0.19141 l 0.15625,-1.14062 c -0.108,0.036 -0.227094,0.0488 -0.371094,0.0488 -0.288,0 -0.43164,-0.15675 -0.43164,-0.46875 v -2.18359 c 0,-1.548 -1.021141,-2.30469 -2.869141,-2.30469 z m 7.070313,0 c -1.956001,0 -2.892579,1.00819 -2.892579,1.99219 0,0.984 0.660375,1.57164 2.484375,1.93164 0.804,0.168 1.091797,0.31302 1.091797,0.54102 0,0.252 -0.33639,0.41992 -0.90039,0.41992 -0.768,0 -1.415391,-0.25156 -1.775391,-0.85156 l -1.056641,1.15039 c 0.612,0.744 1.607735,1.05664 2.927735,1.05664 1.932,0 2.855468,-0.86475 2.855468,-1.96875 0,-1.032 -0.706421,-1.59425 -2.482421,-1.90625 -0.84,-0.156 -1.105469,-0.31274 -1.105469,-0.55274 0,-0.24 0.312109,-0.45703 0.912109,-0.45703 0.72,0 1.247985,0.25352 1.583985,0.85352 l 1.103515,-1.08008 c -0.516,-0.708 -1.306094,-1.12891 -2.746093,-1.12891 z m 6.589843,0 c -2.004,0 -3.130859,1.1411 -3.130859,3.1211 0,1.98 1.140234,3.11914 3.240234,3.11914 1.392,0 2.411766,-0.52827 2.759766,-1.57227 l -1.65625,-0.52734 c -0.132,0.42 -0.503516,0.66015 -1.103516,0.66015 -0.684,0 -1.127765,-0.31179 -1.259765,-1.09179 h 4.091797 c 0.036,-0.156 0.05859,-0.46788 0.05859,-0.67188 0,-1.896 -1.044,-3.03711 -3,-3.03711 z m 19.06836,0 c -2.004,0 -3.167969,1.1531 -3.167969,3.1211 0,1.968 1.163969,3.11914 3.167969,3.11914 2.004,0 3.167968,-1.15114 3.167968,-3.11914 0,-1.968 -1.163968,-3.1211 -3.167968,-3.1211 z m 8.275389,0 c -0.936,0 -1.66873,0.41949 -2.05273,1.27149 l -0.0606,-1.15039 h -1.824219 v 6 H 100.373 v -3.16797 c 0,-0.996 0.49208,-1.39258 1.08008,-1.39258 0.504,0 0.85156,0.27495 0.85156,1.12695 v 3.4336 h 2.03906 v -3.9961 c 0,-1.392 -0.83822,-2.125 -2.07422,-2.125 z m 33.10156,0 c -2.004,0 -3.13086,1.1411 -3.13086,3.1211 0,1.98 1.14024,3.11914 3.24024,3.11914 1.392,0 2.41176,-0.52827 2.75976,-1.57227 l -1.65625,-0.52734 c -0.132,0.42 -0.50351,0.66015 -1.10351,0.66015 -0.684,0 -1.12777,-0.31179 -1.25977,-1.09179 h 4.0918 c 0.036,-0.156 0.0586,-0.46788 0.0586,-0.67188 0,-1.896 -1.044,-3.03711 -3,-3.03711 z m 8.04102,0 c -0.912,0 -1.63163,0.43149 -2.01563,1.27149 l -0.0605,-1.15039 h -1.82422 v 6 h 2.04101 v -3.16797 c 0,-0.984 0.49069,-1.39258 1.05469,-1.39258 0.48,0 0.81641,0.27525 0.81641,1.03125 v 3.5293 h 2.04101 v -3.20508 c 0,-0.9 0.44269,-1.35547 1.05469,-1.35547 0.492,0 0.81641,0.27525 0.81641,1.03125 v 3.5293 h 2.04101 v -3.9961 c 0,-1.404 -0.87673,-2.125 -2.05273,-2.125 -0.876,0 -1.61963,0.42089 -2.01563,1.21289 -0.288,-0.804 -1.00848,-1.21289 -1.89648,-1.21289 z m 10.24023,0 c -2.004,0 -3.13086,1.1411 -3.13086,3.1211 0,1.98 1.14024,3.11914 3.24024,3.11914 1.392,0 2.41176,-0.52827 2.75976,-1.57227 l -1.65625,-0.52734 c -0.132,0.42 -0.50351,0.66015 -1.10351,0.66015 -0.684,0 -1.12777,-0.31179 -1.25977,-1.09179 h 4.0918 c 0.036,-0.156 0.0586,-0.46788 0.0586,-0.67188 0,-1.896 -1.044,-3.03711 -3,-3.03711 z m -99.035152,1.42774 c 0.636,0 1.009468,0.40778 1.105468,1.17578 h -2.257812 c 0.12,-0.804 0.504343,-1.17578 1.152344,-1.17578 z m 20.296874,0 c 0.636,0 1.009469,0.40778 1.105469,1.17578 h -2.257812 c 0.12,-0.804 0.504343,-1.17578 1.152343,-1.17578 z m 60.445318,0 c 0.63599,0 1.00946,0.40778 1.10546,1.17578 h -2.25781 c 0.12,-0.804 0.50434,-1.17578 1.15235,-1.17578 z m 18.28124,0 c 0.636,0 1.00947,0.40778 1.10547,1.17578 h -2.25781 c 0.12,-0.804 0.50434,-1.17578 1.15234,-1.17578 z m -59.646479,0.0254 c 0.756,0 1.126953,0.49197 1.126953,1.66797 0,1.176 -0.370953,1.66797 -1.126953,1.66797 -0.756,0 -1.128907,-0.49197 -1.128907,-1.66797 0,-1.176 0.372907,-1.66797 1.128907,-1.66797 z m -31.876953,2.09961 v 0.51562 c 0,0.552 -0.587797,0.85157 -1.091797,0.85157 -0.372,0 -0.587891,-0.17963 -0.587891,-0.51563 0,-0.336 0.204984,-0.50305 0.708984,-0.62305 z"
       style="font-style:normal;font-variant:normal;font-weight:bold;font-stretch:normal;font-size:12px;line-height:1.25;font-family:'Work Sans';-inkscape-font-specification:'Work Sans Bold';letter-spacing:0px;word-spacing:0px;fill:#ffffff;fill-opacity:1;stroke:none" />
    <g
       style="display:inline;stroke-width:1.33333337;enable-background:new"
       id="g2509"
       transform="translate(-27.99999,17.519548)">
      <rect
         y="398"
         x="46"
         height="16"
         width="16"
         id="rect2503"
         style="color:#bebebe;display:inline;overflow:visible;visibility:visible;opacity:0.51464431;fill:none;stroke:none;stroke-width:4;marker:none;enable-background:accumulate" />
      <rect
         style="opacity:1;vector-effect:none;fill:none;fill-opacity:1;stroke:#2e3436;stroke-width:2.66666675;stroke-linecap:butt;stroke-linejoin:miter;stroke-miterlimit:4;stroke-dasharray:none;stroke-dashoffset:0;stroke-opacity:1;marker:none;marker-start:none;marker-mid:none;marker-end:none;paint-order:normal"
         id="rect2505"
         width="0"
         height="0"
         x="0"
         y="0"
         transform="translate(-254,134)" />
      <path
         style="color:#000000;font-style:normal;font-variant:normal;font-weight:normal;font-stretch:normal;font-size:medium;line-height:normal;font-family:sans-serif;font-variant-ligatures:normal;font-variant-position:normal;font-variant-caps:normal;font-variant-numeric:normal;font-variant-alternates:normal;font-feature-settings:normal;text-indent:0;text-align:start;text-decoration:none;text-decoration-line:none;text-decoration-style:solid;text-decoration-color:#000000;letter-spacing:normal;word-spacing:normal;text-transform:none;writing-mode:lr-tb;direction:ltr;text-orientation:mixed;dominant-baseline:auto;baseline-shift:baseline;text-anchor:start;white-space:normal;shape-padding:0;clip-rule:nonzero;display:inline;overflow:visible;visibility:visible;opacity:1;isolation:auto;mix-blend-mode:normal;color-interpolation:sRGB;color-interpolation-filters:linearRGB;solid-color:#000000;solid-opacity:1;vector-effect:none;fill:#ffffff;fill-opacity:1;fill-rule:nonzero;stroke:none;stroke-width:1.33333337px;stroke-linecap:round;stroke-linejoin:miter;stroke-miterlimit:4;stroke-dasharray:none;stroke-dashoffset:0;stroke-opacity:1;color-rendering:auto;image-rendering:auto;shape-rendering:auto;text-rendering:auto;enable-background:accumulate"
         d="m 306.00302,264.99996 c 0,0 -3,0 -3,3 v 5 c 0,0 0.0439,1.41871 0.0283,2.00046 0,0.99958 -0.5377,1.41303 -1.40438,2.12067 -0.62725,0.48985 -0.77411,1.31026 -0.30664,1.69727 0.42932,0.35542 1.16167,0.30404 1.66016,-0.34375 L 304,277 c 0.69754,-1.01395 0.98273,-1.87583 1,-3 l 0.003,-6.00004 C 305.00352,266.99996 306,267 306,267 v 6.57422 l 3.00302,-3.07426 v -2.5 C 309.00302,266.99996 310,267 310,267 l 0.003,2.49996 1.997,-2.03512 c 0.33843,-0.31195 0.50302,-0.46488 1,-0.46484 l 0.003,0.99996 L 309,272 h 4 c 0,0 0.003,1 -1,1 h -4 l -2,2 c 0,0.42593 0,2.00586 2,2.00586 l 4.00302,-0.006 c 0,0 3,0 2.99698,-2.99019 V 265 Z"
         transform="translate(-254,134)"
         id="path2507" />
    </g>
  </g>
</svg>
