<svg xmlns="http://www.w3.org/2000/svg" width="470" height="200"><g transform="translate(0 -922.52)"><rect style="marker:none;font-variation-settings:normal" width="466.22" height="196.22" x="1.89" y="924.409" rx="16.232" ry="16.232" fill="#fff" stroke="#26a269" stroke-width="4"/><g transform="matrix(1.69084 0 0 1.69084 -272.357 -1276.232)"><circle r="38.443" cy="1361.309" cx="232.049" fill="#26a269"/><circle cx="232.049" cy="1361.309" r="30.665" fill="#2ec27e"/><circle r="23.497" cy="1361.309" cx="232.049" fill="#33d17a"/><circle cx="232.049" cy="1361.309" r="15.081" fill="#57e389"/><circle r="7.74" cy="1361.309" cx="232.049" fill="#8ff0a4"/></g><g font-family="Red Hat Display" word-spacing="0"><path style="line-height:1.25;-inkscape-font-specification:'Red Hat Display, Heavy';font-variant-ligatures:normal;font-variant-caps:normal;font-variant-numeric:normal;font-variant-east-asian:normal" d="M236.095 1061.126c-4.443 0-7.729-3.469-7.729-8.154 0-4.686 3.226-8.216 7.485-8.216 2.86 0 5.112 1.157 7.363 3.713l6.025-6.268c-3.347-3.773-8.337-5.964-13.631-5.964-9.615 0-17.039 7.302-17.039 16.735 0 9.432 7.424 16.673 17.039 16.673 5.112 0 10.04-2.19 13.327-5.902l-5.842-6.086c-2.13 2.373-4.32 3.469-6.998 3.469zM258.924 1033.864a5.428 5.428 0 005.416-5.416 5.428 5.428 0 00-5.416-5.416 5.428 5.428 0 00-5.415 5.416 5.428 5.428 0 005.415 5.416zm4.93 2.982h-9.859v32.19h9.858zM271.105 1069.037h9.858v-20.447c1.643-2.556 4.381-4.077 7.485-4.077 1.704 0 3.408.365 4.686.974v-8.58c-.852-.548-1.826-.73-3.712-.792-3.47 0-6.33 1.4-8.459 3.956v-3.225h-9.858zM313.407 1061.126c-4.442 0-7.728-3.469-7.728-8.154 0-4.686 3.225-8.216 7.485-8.216 2.86 0 5.112 1.157 7.363 3.713l6.025-6.268c-3.347-3.773-8.337-5.964-13.631-5.964-9.615 0-17.04 7.302-17.04 16.735 0 9.432 7.425 16.673 17.04 16.673 5.111 0 10.04-2.19 13.326-5.902l-5.842-6.086c-2.13 2.373-4.32 3.469-6.998 3.469zM341.166 1024.31l-9.858 2.13v42.597h9.858zM377.931 1064.777l-6.511-5.781c-1.522 1.582-3.773 2.434-6.45 2.434-3.713 0-6.634-2.069-7.911-5.112H380v-2.434c0-10.162-6.815-17.586-16.248-17.586-9.432 0-16.795 7.302-16.795 16.674 0 9.37 7.667 16.673 17.526 16.673 5.355 0 9.37-1.46 13.448-4.868zm-14.361-20.446c3.164 0 5.72 2.008 6.754 5.111h-13.448c.974-3.225 3.408-5.111 6.694-5.111z" font-weight="900" font-size="122.059" letter-spacing="2.339" fill="#26a269"/><path style="line-height:1.25;-inkscape-font-specification:'Red Hat Display, Medium';font-variant-ligatures:normal;font-variant-caps:normal;font-variant-numeric:normal;font-variant-east-asian:normal" d="M248.252 998.77v-1.492h-14.21v3.811h9.653c-.58 4.806-4.558 8.286-9.695 8.286-6.09 0-10.73-4.765-10.73-10.979 0-6.214 4.599-10.937 10.647-10.937 3.356 0 6.546 1.409 8.7 3.894l2.983-2.9c-2.817-3.148-7.084-5.012-11.683-5.012-8.451 0-15.08 6.587-15.08 14.955 0 8.369 6.67 14.956 15.122 14.956 8.12 0 14.293-6.297 14.293-14.583zM253.603 983.896v29h4.101v-22.205l16.613 22.205h3.811v-29h-4.101v21.502l-16.157-21.502zM313.805 998.396c0-8.368-6.67-14.955-15.121-14.955-8.452 0-15.08 6.587-15.08 14.955 0 8.369 6.628 14.956 15.08 14.956 8.451 0 15.121-6.587 15.121-14.956zm-4.433 0c0 6.173-4.64 10.937-10.688 10.937-6.007 0-10.647-4.764-10.647-10.937 0-6.214 4.64-10.937 10.647-10.937 6.048 0 10.688 4.723 10.688 10.937zM334.112 1010.825l10.813-21.584v23.655h4.101v-29h-5.8l-9.073 18.519-9.114-18.519h-5.8v29h4.06v-23.614zM355.703 1012.896h21.543v-3.811h-17.193v-8.949h11.185v-3.728h-11.185v-8.7h17.027v-3.812h-21.377z" font-weight="500" font-size="83.098" letter-spacing="1.592" fill="#33d17a"/></g></g></svg>