<?xml version="1.0" encoding="UTF-8" standalone="no"?>
<svg
   width="40"
   height="40"
   version="1.1"
   id="svg8"
   sodipodi:docname="icon-historic.svg"
   inkscape:version="1.1 (c68e22c387, 2021-05-23)"
   xmlns:inkscape="http://www.inkscape.org/namespaces/inkscape"
   xmlns:sodipodi="http://sodipodi.sourceforge.net/DTD/sodipodi-0.dtd"
   xmlns="http://www.w3.org/2000/svg"
   xmlns:svg="http://www.w3.org/2000/svg">
  <defs
     id="defs12" />
  <sodipodi:namedview
     id="namedview10"
     pagecolor="#505050"
     bordercolor="#ffffff"
     borderopacity="1"
     inkscape:pageshadow="0"
     inkscape:pageopacity="0"
     inkscape:pagecheckerboard="1"
     showgrid="false"
     inkscape:zoom="9.269728"
     inkscape:cx="16.828973"
     inkscape:cy="21.683484"
     inkscape:window-width="1920"
     inkscape:window-height="1011"
     inkscape:window-x="0"
     inkscape:window-y="32"
     inkscape:window-maximized="1"
     inkscape:current-layer="svg8"
     width="40px" />
  <g
     color="#000000"
     font-weight="400"
     font-family="Sans"
     fill="#474747"
     id="g6"
     style="fill:#eeeeee;fill-opacity:1"
     transform="matrix(2.270754,0,0,2.270754,0.72924598,2.9545849)">
    <path
       d="M 8.487,0.02 A 7.492,7.492 0 0 0 1,7.507 7.492,7.492 0 0 0 8.487,14.993 7.492,7.492 0 0 0 15.973,7.507 7.492,7.492 0 0 0 8.487,0.02 Z m 0,1.973 A 5.508,5.508 0 0 1 14,7.507 5.508,5.508 0 0 1 8.487,13.02 5.508,5.508 0 0 1 2.973,7.507 5.508,5.508 0 0 1 8.487,1.993 Z"
       style="line-height:normal;-inkscape-font-specification:Sans;text-indent:0;text-align:start;text-decoration-line:none;text-transform:none;fill:#eeeeee;fill-opacity:1;marker:none"
       overflow="visible"
       id="path2" />
    <path
       d="m 11.393,4.007 a 0.5,0.5 0 0 0 -0.25,0.156 L 8.487,6.819 6.83,5.163 A 0.5,0.5 0 1 0 6.143,5.85 l 2,2 a 0.5,0.5 0 0 0 0.687,0 l 3,-3 A 0.5,0.5 0 0 0 11.393,4.007 Z"
       style="line-height:normal;-inkscape-font-specification:Sans;text-indent:0;text-align:start;text-decoration-line:none;text-transform:none;fill:#eeeeee;fill-opacity:1;marker:none"
       overflow="visible"
       id="path4" />
  </g>
</svg>
