<?xml version="1.0" encoding="UTF-8" standalone="no"?>
<svg
   height="40"
   viewBox="0 0 40 40"
   width="40"
   version="1.1"
   id="svg8"
   sodipodi:docname="icon-moon.svg"
   inkscape:version="1.1 (c68e22c387, 2021-05-23)"
   xmlns:inkscape="http://www.inkscape.org/namespaces/inkscape"
   xmlns:sodipodi="http://sodipodi.sourceforge.net/DTD/sodipodi-0.dtd"
   xmlns="http://www.w3.org/2000/svg"
   xmlns:svg="http://www.w3.org/2000/svg">
  <defs
     id="defs12" />
  <sodipodi:namedview
     id="namedview10"
     pagecolor="#505050"
     bordercolor="#ffffff"
     borderopacity="1"
     inkscape:pageshadow="0"
     inkscape:pageopacity="0"
     inkscape:pagecheckerboard="1"
     showgrid="false"
     width="40px"
     inkscape:zoom="9.269728"
     inkscape:cx="21.036216"
     inkscape:cy="33.226433"
     inkscape:window-width="1920"
     inkscape:window-height="1011"
     inkscape:window-x="0"
     inkscape:window-y="32"
     inkscape:window-maximized="1"
     inkscape:current-layer="svg8"
     showguides="false" />
  <g
     id="g1133"
     transform="matrix(0.56666667,0,0,0.56666667,1.8666667,1.8666667)">
    <path
       d="M 26.944194,2.46875 C 12.83147,4.8794643 2,17.200893 2,32 c 0,16.523439 13.493301,30 30.01674,30 7.5,0 14.347097,-2.79576 19.620536,-7.382811 -16.171877,-4.20201 -28.208705,-18.934153 -28.208705,-36.395092 0,-5.625 1.289062,-10.9486584 3.515623,-15.753347 z m 0,0"
       id="path2"
       style="fill:#eeeeee;fill-opacity:1;stroke-width:4.28571" />
    <path
       d="m 32.01674,2 c -1.741071,0 -3.415178,0.1841529 -5.072546,0.46875 -2.226561,4.8046886 -3.515623,10.128347 -3.515623,15.753347 0,17.460939 12.036828,32.193082 28.208705,36.395092 C 57.965399,49.109377 62,41.023439 62,32 62,15.476561 48.523434,2 32.01674,2 Z m 0,0"
       fill-opacity="0.35"
       id="path4"
       style="fill:#eeeeee;fill-opacity:0.333333;stroke-width:4.28571" />
  </g>
</svg>
