<?xml version="1.0" encoding="UTF-8" standalone="no"?>
<svg
   height="40"
   viewBox="0 0 40 40"
   width="40"
   version="1.1"
   id="svg22"
   sodipodi:docname="icon-sun.svg"
   inkscape:version="1.1 (c68e22c387, 2021-05-23)"
   xmlns:inkscape="http://www.inkscape.org/namespaces/inkscape"
   xmlns:sodipodi="http://sodipodi.sourceforge.net/DTD/sodipodi-0.dtd"
   xmlns="http://www.w3.org/2000/svg"
   xmlns:svg="http://www.w3.org/2000/svg">
  <defs
     id="defs26" />
  <sodipodi:namedview
     id="namedview24"
     pagecolor="#505050"
     bordercolor="#ffffff"
     borderopacity="1"
     inkscape:pageshadow="0"
     inkscape:pageopacity="0"
     inkscape:pagecheckerboard="1"
     showgrid="false"
     width="48px"
     inkscape:zoom="6.5546875"
     inkscape:cx="19.985697"
     inkscape:cy="30.20739"
     inkscape:window-width="1920"
     inkscape:window-height="1011"
     inkscape:window-x="0"
     inkscape:window-y="32"
     inkscape:window-maximized="1"
     inkscape:current-layer="svg22" />
  <g
     fill="#2e3436"
     id="g20"
     transform="matrix(2.25,0,0,2.25,2,2)"
     style="fill:#eeeeee;fill-opacity:1">
    <path
       d="m 8,4.007812 c -2.195312,0 -4,1.804688 -4,4 0,2.191407 1.804688,4 4,4 2.195312,0 4,-1.808593 4,-4 0,-2.195312 -1.804688,-4 -4,-4 z m 0,0"
       id="path2"
       style="fill:#eeeeee;fill-opacity:1" />
    <path
       d="m 7.5,0 h 1 C 8.777344,0 9,0.222656 9,0.5 v 2 C 9,2.777344 8.777344,3 8.5,3 h -1 C 7.222656,3 7,2.777344 7,2.5 v -2 C 7,0.222656 7.222656,0 7.5,0 Z m 0,0"
       id="path4"
       style="fill:#eeeeee;fill-opacity:1" />
    <path
       d="m 7.5,13 h 1 C 8.777344,13 9,13.222656 9,13.5 v 2 C 9,15.777344 8.777344,16 8.5,16 h -1 C 7.222656,16 7,15.777344 7,15.5 v -2 C 7,13.222656 7.222656,13 7.5,13 Z m 0,0"
       id="path6"
       style="fill:#eeeeee;fill-opacity:1" />
    <path
       d="M 1.988281,2.695312 2.695312,1.988281 c 0.195313,-0.195312 0.511719,-0.195312 0.707032,0 l 1.414062,1.414063 c 0.195313,0.195312 0.195313,0.511718 0,0.707031 L 4.109375,4.816406 c -0.195313,0.195313 -0.511719,0.195313 -0.707031,0 L 1.988281,3.402344 c -0.195312,-0.195313 -0.195312,-0.511719 0,-0.707032 z m 0,0"
       id="path8"
       style="fill:#eeeeee;fill-opacity:1" />
    <path
       d="m 11.183594,11.890625 0.707031,-0.707031 c 0.195313,-0.195313 0.511719,-0.195313 0.707031,0 l 1.414063,1.414062 c 0.195312,0.195313 0.195312,0.511719 0,0.707032 l -0.707031,0.707031 c -0.195313,0.195312 -0.511719,0.195312 -0.707032,0 l -1.414062,-1.414063 c -0.195313,-0.195312 -0.195313,-0.511718 0,-0.707031 z m 0,0"
       id="path10"
       style="fill:#eeeeee;fill-opacity:1" />
    <path
       d="M 2.695312,14.011719 1.988281,13.304688 c -0.195312,-0.195313 -0.195312,-0.511719 0,-0.707032 l 1.414063,-1.414062 c 0.195312,-0.195313 0.511718,-0.195313 0.707031,0 l 0.707031,0.707031 c 0.195313,0.195313 0.195313,0.511719 0,0.707031 l -1.414062,1.414063 c -0.195313,0.195312 -0.511719,0.195312 -0.707032,0 z m 0,0"
       id="path12"
       style="fill:#eeeeee;fill-opacity:1" />
    <path
       d="M 11.890625,4.816406 11.183594,4.109375 c -0.195313,-0.195313 -0.195313,-0.511719 0,-0.707031 l 1.414062,-1.414063 c 0.195313,-0.195312 0.511719,-0.195312 0.707032,0 l 0.707031,0.707031 c 0.195312,0.195313 0.195312,0.511719 0,0.707032 l -1.414063,1.414062 c -0.195312,0.195313 -0.511718,0.195313 -0.707031,0 z m 0,0"
       id="path14"
       style="fill:#eeeeee;fill-opacity:1" />
    <path
       d="m 16,7.5 v 1 C 16,8.777344 15.777344,9 15.5,9 h -2 C 13.222656,9 13,8.777344 13,8.5 v -1 C 13,7.222656 13.222656,7 13.5,7 h 2 C 15.777344,7 16,7.222656 16,7.5 Z m 0,0"
       id="path16"
       style="fill:#eeeeee;fill-opacity:1" />
    <path
       d="m 3,7.5 v 1 C 3,8.777344 2.777344,9 2.5,9 h -2 C 0.222656,9 0,8.777344 0,8.5 v -1 C 0,7.222656 0.222656,7 0.5,7 h 2 C 2.777344,7 3,7.222656 3,7.5 Z m 0,0"
       id="path18"
       style="fill:#eeeeee;fill-opacity:1" />
  </g>
</svg>
