<?xml version="1.0" encoding="UTF-8" standalone="no"?>
<svg
   version="1.2"
   id="Layer_1"
   x="0px"
   y="0px"
   viewBox="0 0 850 700"
   width="850"
   height="700"
   xmlns="http://www.w3.org/2000/svg"
   xmlns:svg="http://www.w3.org/2000/svg">
  <defs
     id="defs51" />
  <path
     fill="#1e2438"
     d="M 790,655.90901 H 60 V 184.25076 C 60,171.33368 70.33367,161 83.250758,161 H 774.4995 C 782.98787,161 790,168.01214 790,176.5005 Z"
     id="path5"
     style="fill:#292725;stroke-width:3.69059;fill-opacity:1" />
  <path
     fill="#ffffff"
     d="M 850.00001,655.00518 H 484.03797 c -40.7032,0 -89.84038,0 -118.07593,0 H -1.0000001e-6 v 23.83521 H 850.00001 Z"
     id="path7"
     style="stroke-width:3.66695" />
  <path
     fill="#1e2438"
     d="m -1.0000001e-6,678.84039 v 0.36669 c 0,0 7.7006040000001,19.80156 22.0017260000001,19.80156 H 760.52632 c 80.3063,0 85.44004,-9.16739 89.47369,-19.80156 v -0.36669 z"
     id="path8"
     style="fill:#292725;stroke-width:3.66695;fill-opacity:1" />
  <path
     fill="#1e2438"
     d="m 375.12942,671.87317 c 0,1.46679 1.10009,2.56687 2.56687,2.56687 h 94.24073 c 1.46678,0 2.56687,-1.10008 2.56687,-2.56687 v -2.56686 c 0,-1.46679 -1.10009,-2.56687 -2.56687,-2.56687 h -94.24073 c -1.46678,0 -2.56687,1.10008 -2.56687,2.56687 z"
     id="path9"
     style="fill:#292725;stroke-width:3.66695;fill-opacity:1" />
</svg>
