<?xml version="1.0" encoding="UTF-8"?>
<svg width="16px" height="16px" version="1.1" viewBox="0 0 16 16" xmlns="http://www.w3.org/2000/svg"><clipPath id="a"><path d="m0 8h16v8h-16z"/></clipPath><clipPath id="b"><path d="m0 0h16v8h-16z"/></clipPath><clipPath id="c"><path d="m-5-2h26v23h-26zm18 7a5 5 0 0 0-5-5 5 5 0 0 0-5 5 5 5 0 0 0 5 5 5 5 0 0 0 5-5z"/></clipPath><g clip-path="url(#c)"><g clip-path="url(#a)"><path d="m3 1c-1.6445 0-3 1.3555-3 3v7c0 1.6445 1.3555 3 3 3h3c0.5625 0 1 0.4375 1 1 0 0.55078 0.44922 1 1 1s1-0.44922 1-1c0-1.6445-1.3555-3-3-3h-3c-0.5625 0-1-0.4375-1-1v-7c0-0.5625 0.4375-1 1-1h3c0.5625 0 1 0.4375 1 1 0 0.55078 0.44922 1 1 1s1-0.44922 1-1c0-1.6445-1.3555-3-3-3z"/><path d="m10 1c-1.6445 0-3 1.3555-3 3 0 0.55078 0.44922 1 1 1s1-0.44922 1-1c0-0.5625 0.4375-1 1-1h3c0.5625 0 1 0.4375 1 1v7c0 0.5625-0.4375 1-1 1h-3c-1.6445 0-3 1.3555-3 3 0 0.55078 0.44922 1 1 1s1-0.44922 1-1c0-0.5625 0.4375-1 1-1h3c1.6445 0 3-1.3555 3-3v-7c0-1.6445-1.3555-3-3-3z"/></g><g transform="translate(0 2)" clip-path="url(#b)"><path d="m3 1c-1.6445 0-3 1.3555-3 3v7c0 1.6445 1.3555 3 3 3h3c0.5625 0 1 0.4375 1 1 0 0.55078 0.44922 1 1 1s1-0.44922 1-1c0-1.6445-1.3555-3-3-3h-3c-0.5625 0-1-0.4375-1-1v-7c0-0.5625 0.4375-1 1-1h3c0.5625 0 1 0.4375 1 1 0 0.55078 0.44922 1 1 1s1-0.44922 1-1c0-1.6445-1.3555-3-3-3z"/><path d="m10 1c-1.6445 0-3 1.3555-3 3 0 0.55078 0.44922 1 1 1s1-0.44922 1-1c0-0.5625 0.4375-1 1-1h3c0.5625 0 1 0.4375 1 1v7c0 0.5625-0.4375 1-1 1h-3c-1.6445 0-3 1.3555-3 3 0 0.55078 0.44922 1 1 1s1-0.44922 1-1c0-0.5625 0.4375-1 1-1h3c1.6445 0 3-1.3555 3-3v-7c0-1.6445-1.3555-3-3-3z"/></g></g><circle cx="8" cy="5" r="4"/></svg>
