<?xml version="1.0" encoding="UTF-8" standalone="no"?>
<svg
   xmlns:dc="http://purl.org/dc/elements/1.1/"
   xmlns:cc="http://creativecommons.org/ns#"
   xmlns:rdf="http://www.w3.org/1999/02/22-rdf-syntax-ns#"
   xmlns:svg="http://www.w3.org/2000/svg"
   xmlns="http://www.w3.org/2000/svg"
   xmlns:sodipodi="http://sodipodi.sourceforge.net/DTD/sodipodi-0.dtd"
   xmlns:inkscape="http://www.inkscape.org/namespaces/inkscape"
   width="16"
   height="16"
   version="1.1"
   id="svg4"
   sodipodi:docname="com.github.hugolabe.Wike-symbolic.svg"
   inkscape:version="0.92.4 (5da689c313, 2019-01-14)">
  <metadata
     id="metadata10">
    <rdf:RDF>
      <cc:Work
         rdf:about="">
        <dc:format>image/svg+xml</dc:format>
        <dc:type
           rdf:resource="http://purl.org/dc/dcmitype/StillImage" />
        <dc:title></dc:title>
      </cc:Work>
    </rdf:RDF>
  </metadata>
  <defs
     id="defs8" />
  <sodipodi:namedview
     pagecolor="#ffffff"
     bordercolor="#666666"
     borderopacity="1"
     objecttolerance="10"
     gridtolerance="10"
     guidetolerance="10"
     inkscape:pageopacity="0"
     inkscape:pageshadow="2"
     inkscape:window-width="1680"
     inkscape:window-height="986"
     id="namedview6"
     showgrid="false"
     inkscape:pagecheckerboard="false"
     inkscape:showpageshadow="false"
     inkscape:zoom="14.75"
     inkscape:cx="9.0517694"
     inkscape:cy="14.428787"
     inkscape:window-x="0"
     inkscape:window-y="27"
     inkscape:window-maximized="1"
     inkscape:current-layer="svg4" />
  <path
     style="line-height:normal;font-variant-ligatures:normal;font-variant-position:normal;font-variant-caps:normal;font-variant-numeric:normal;font-variant-alternates:normal;font-feature-settings:normal;text-indent:0;text-align:start;text-decoration:none;text-decoration-line:none;text-decoration-style:solid;text-decoration-color:#000000;text-transform:none;text-orientation:mixed;shape-padding:0;isolation:auto;mix-blend-mode:normal;fill:#bebebe;fill-opacity:1;stroke-width:0.93541443"
     d="M 2.75 2 C 1.7875 2 1 2.9 1 4 L 1 12 C 1 13.1 1.7875 14 2.75 14 L 13.25 14 C 14.2125 14 15 13.1 15 12 L 15 4 C 15 2.9 14.2125 2 13.25 2 L 2.75 2 z M 9.8691406 4.5 C 10.295614 4.50051 10.644531 4.5039062 10.644531 4.5039062 L 10.667969 4.5273438 L 10.667969 4.7382812 C 10.667969 4.7971973 10.636522 4.8261719 10.570312 4.8261719 C 10.245342 4.8412285 10.177521 4.8719853 10.058594 5.0410156 C 9.9936891 5.1334919 9.8652894 5.3323241 9.7324219 5.5546875 L 8.5917969 7.6621094 C 8.5917969 7.6621094 8.5601338 7.7260256 8.5585938 7.7285156 L 9.953125 10.541016 L 10.039062 10.564453 L 12.234375 5.4199219 C 12.310597 5.2126219 12.297239 5.0669138 12.199219 4.9804688 C 12.10075 4.8961594 12.031747 4.8462835 11.777344 4.8359375 L 11.570312 4.8261719 C 11.545053 4.8261719 11.521147 4.8156281 11.498047 4.7988281 C 11.475357 4.7828941 11.464844 4.7636272 11.464844 4.7382812 L 11.464844 4.5234375 L 11.496094 4.5 L 13.976562 4.5 L 14 4.5234375 L 14 4.7382812 C 14 4.7963423 13.966611 4.8261719 13.900391 4.8261719 C 13.575417 4.8403679 13.335641 4.9089045 13.179688 5.0332031 C 13.023301 5.1583811 12.903966 5.330602 12.816406 5.5546875 C 12.816406 5.5546875 10.794417 10.116271 10.103516 11.632812 C 9.8391014 12.129981 9.5802645 12.08692 9.3515625 11.621094 C 9.0562511 11.020646 8.5257752 9.8685855 8.0859375 8.9121094 C 8.0008165 8.9681894 8.0009106 8.7876734 7.9941406 8.8808594 C 7.5231029 9.8414585 6.9399316 11.018035 6.6074219 11.626953 C 6.2989842 12.156438 6.0478311 12.087066 5.8457031 11.640625 C 5.1439259 10.005992 3.7017015 7.1339966 3.0234375 5.5253906 C 2.8979766 5.2290523 2.8041477 5.0381566 2.7148438 4.9628906 C 2.6251446 4.8884855 2.4359338 4.8451291 2.1523438 4.8300781 C 2.0482325 4.8188921 2 4.7924021 2 4.7519531 L 2 4.53125 L 2.0234375 4.5078125 C 2.4852138 4.5053225 4.71875 4.5078125 4.71875 4.5078125 L 4.7460938 4.53125 L 4.7460938 4.7421875 C 4.7460937 4.8011075 4.7092596 4.8300781 4.6347656 4.8300781 L 4.3515625 4.84375 C 4.110228 4.8536346 3.9902344 4.9226464 3.9902344 5.0546875 C 3.9902344 5.116197 4.0160626 5.216938 4.0722656 5.3515625 C 4.6124138 6.650938 6.4785156 10.535156 6.4785156 10.535156 L 6.546875 10.552734 L 7.7480469 8.1875 C 7.6851489 8.0500589 7.5058594 7.6582031 7.5058594 7.6582031 L 6.6796875 6.0527344 C 6.6796875 6.0527344 6.5192977 5.7336186 6.4648438 5.6269531 C 6.1015318 4.9160091 6.1113706 4.8778301 5.7441406 4.8300781 C 5.6413299 4.8167411 5.5878906 4.8022761 5.5878906 4.7519531 L 5.5878906 4.5273438 L 5.6171875 4.5078125 C 6.2806383 4.5067925 7.7578125 4.5039062 7.7578125 4.5039062 L 7.8164062 4.5234375 L 7.8164062 4.7480469 C 7.8164063 4.7992269 7.778494 4.8261719 7.703125 4.8261719 L 7.546875 4.8457031 C 7.1548127 4.8758171 7.2180118 5.0365601 7.4785156 5.5488281 L 8.2714844 7.1523438 L 9.1503906 5.4238281 C 9.2971986 5.1076898 9.2695334 5.026239 9.2089844 4.953125 C 9.1741544 4.9118296 9.0547476 4.8463005 8.8007812 4.8359375 L 8.7011719 4.8261719 C 8.6759119 4.8261719 8.6520062 4.8156281 8.6289062 4.7988281 C 8.6062173 4.7828941 8.5957031 4.7644842 8.5957031 4.7382812 L 8.5957031 4.5234375 L 8.6269531 4.5039062 C 8.9375285 4.5019362 9.4426537 4.4998123 9.8691406 4.5 z "
     id="path819" />
</svg>
