<?xml version="1.0" encoding="UTF-8"?>
<svg width="128px" height="128px" version="1.1" viewBox="0 0 128 128" xmlns="http://www.w3.org/2000/svg"><linearGradient id="a" x1="64" x2="120" y1="80" y2="80" gradientUnits="userSpaceOnUse"><stop stop-color="#deddda" offset="0"/><stop stop-color="#deddda" offset=".85714"/><stop stop-color="#f6f5f4" offset=".92857"/><stop stop-color="#deddda" offset="1"/></linearGradient><linearGradient id="b" x1="64" x2="120" y1="246" y2="246" gradientTransform="matrix(-1 0 0 1 128 -166)" gradientUnits="userSpaceOnUse"><stop stop-color="#deddda" offset="0"/><stop stop-color="#deddda" offset=".85714"/><stop stop-color="#f6f5f4" offset=".92857"/><stop stop-color="#deddda" offset="1"/></linearGradient><linearGradient id="c" x1="320" x2="416" y1="116" y2="116" gradientTransform="matrix(-.25 0 0 .25 168 31)" gradientUnits="userSpaceOnUse"><stop stop-color="#fff" offset="0"/><stop stop-color="#fff" offset=".5"/><stop stop-color="#f6f5f4" offset="1"/></linearGradient><linearGradient id="d" x1="40" x2="64" y1="60" y2="60" gradientUnits="userSpaceOnUse"><stop stop-color="#fff" offset="0"/><stop stop-color="#fff" offset=".5"/><stop stop-color="#deddda" offset="1"/></linearGradient><clipPath id="e"><path d="m78 68h14v7.2812h-14z"/></clipPath><clipPath id="f"><path d="m78 76h14v7.2812h-14z"/></clipPath><path d="m120 97.5v5.3711c0 3.582-3.5664 6.4648-8 6.4648h-22c-9.6836 0-15.023 4.6367-18.816 11.312h-14.368c-3.793-6.6758-9.1324-11.312-18.816-11.312h-22c-4.4336 0-8-2.8828-8-6.4648v-5.3711z" fill="#ff7800"/><path d="m66.328 63.5c-0.16016 0.79688-0.27344 1.6016-0.32812 2.4102h-2v50.906h5.184c3.793-6.6758 11.132-11.312 20.816-11.312h22c4.4336 0 8-2.8828 8-6.4648v-28.805c0-3.582-3.5664-6.4648-8-6.4648z" fill="url(#a)"/><path d="m61.676 63.5c0.15625 0.79688 0.26953 1.6016 0.32422 2.4102h2v50.906h-5.184c-3.793-6.6758-11.132-11.312-20.816-11.312h-22c-4.4336 0-8-2.8828-8-6.4648v-28.805c0-3.582 3.5664-6.4648 8-6.4648z" fill="url(#b)"/><path d="m112 30c4.4336 0 8 2.8828 8 6.4648v47.676c0 3.582-3.5664 6.4648-8 6.4648h-24c-13.254 0-24 8.6836-24 19.395v-58.988c0-10.711 10.746-21.012 24-21.012z" fill="url(#c)"/><path d="m16 30c-4.4336 0-8 2.8828-8 6.4648v47.676c0 3.582 3.5664 6.4648 8 6.4648h24c13.254 0 24 8.6836 24 19.395v-58.988c0-10.711-10.746-21.012-24-21.012z" fill="url(#d)"/><g transform="translate(0,-2)" fill="#deddda"><path d="m108 52v4h-18c-4.375 0.18359-8.4648 1.2969-12 3.2812v-3.5508c3.5312-2.3359 7.625-3.7305 12-3.7305z"/><path d="m108 44v4h-18c-4.375 0.18359-8.4648 1.2969-12 3.2812v-3.5508c3.5312-2.3359 7.625-3.7305 12-3.7305z"/><path d="m108 60v4h-18c-4.375 0.18359-8.4648 1.2969-12 3.2812v-3.5508c3.5312-2.3359 7.625-3.7305 12-3.7305z"/><g clip-path="url(#e)"><path d="m108 68v4h-18c-4.375 0.18359-8.4648 1.2969-12 3.2812v-3.5508c3.5312-2.3359 7.625-3.7305 12-3.7305z" fill="#deddda"/></g><g clip-path="url(#f)"><path d="m108 76v4h-18c-4.375 0.18359-8.4648 1.2969-12 3.2812v-3.5508c3.5312-2.3359 7.625-3.7305 12-3.7305z" fill="#deddda"/></g><path d="m20 52v4h20c3.5742 0.14844 6.9531 0.92969 10 2.293v-3.7344c-3.0469-1.6172-6.4258-2.5586-10-2.5586z"/><path d="m20 60v4h20c3.5742 0.14844 6.9531 0.92969 10 2.293v-3.7344c-3.0469-1.6172-6.4258-2.5586-10-2.5586z"/><path d="m20 68v4h20c3.5742 0.14844 6.9531 0.92969 10 2.293v-3.7344c-3.0469-1.6172-6.4258-2.5586-10-2.5586z"/></g><path d="m20 42v4h20c3.5742 0.14844 6.9531 0.92969 10 2.293v-3.7344c-3.0469-1.6172-6.4258-2.5586-10-2.5586z" fill="#faa89f"/><path d="m20 74v4h20c3.5742 0.14844 6.9531 0.92969 10 2.293v-3.7344c-3.0469-1.6172-6.4258-2.5586-10-2.5586z" fill="#deddda"/><path d="m99 41c0 19.328-15.672 35-35 35-19.332 0-35-15.672-35-35s15.668-35 35-35c19.328 0 35 15.672 35 35z" fill="#62a0ea"/><g fill="#8ff0a4"><path d="m59.59 15.969h-20.047c-6.5039 6.3555-10.543 15.219-10.543 25.031 0 8.9258 3.3438 17.07 8.8398 23.25h17.266c2.668 0 4.8281-2.1602 4.8281-4.8281s-2.1602-4.8281-4.8281-4.8281h-11.289c-2.668 0-4.8281-2.1602-4.8281-4.8281s2.1602-4.8281 4.8281-4.8281h11.289c2.668 0 4.8281-2.1641 4.8281-4.8281 0-2.668-2.1602-4.8281-4.8281-4.8281h-9.0469c-2.668 0-4.8281-2.1641-4.8281-4.8281 0-2.668 2.1602-4.8281 4.8281-4.8281h13.531c2.668 0 4.8281-2.1641 4.8281-4.8281 0-2.668-2.1602-4.8281-4.8281-4.8281z"/><path d="m99 41c0-6.4297-1.7383-12.457-4.7617-17.637h-19.945c-2.668 0-4.8281 2.1641-4.8281 4.832 0 2.6641 2.1602 4.8281 4.8281 4.8281h11.293c2.6641 0 4.8281 2.1602 4.8281 4.8281 0 2.6641-2.1641 4.8281-4.8281 4.8281h-11.293c-2.668 0-4.8281 2.1602-4.8281 4.8281 0 2.6641 2.1602 4.8281 4.8281 4.8281h22.828c1.2188-3.5547 1.8789-7.3672 1.8789-11.336z"/><path d="m76.16 59.863h-5.0039c-2.0195 0-3.6602 1.6406-3.6602 3.6641 0 2.0195 1.6406 3.6602 3.6602 3.6602h5.0039c2.0195 0 3.6602-1.6406 3.6602-3.6602 0-2.0234-1.6406-3.6641-3.6602-3.6641z"/></g><path d="m96 66h12v12h-12z" fill="#deddda"/></svg>
