<?xml version="1.0" encoding="UTF-8" standalone="no"?>
<!-- Created with Inkscape (http://www.inkscape.org/) -->

<svg
   id="svg7384"
   width="16"
   height="16"
   version="1.1"
   sodipodi:docname="wike-language-symbolic.svg"
   inkscape:version="1.1 (c68e22c387, 2021-05-23)"
   xmlns:inkscape="http://www.inkscape.org/namespaces/inkscape"
   xmlns:sodipodi="http://sodipodi.sourceforge.net/DTD/sodipodi-0.dtd"
   xmlns="http://www.w3.org/2000/svg"
   xmlns:svg="http://www.w3.org/2000/svg"
   xmlns:rdf="http://www.w3.org/1999/02/22-rdf-syntax-ns#"
   xmlns:cc="http://creativecommons.org/ns#"
   xmlns:dc="http://purl.org/dc/elements/1.1/">
  <title
     id="title819">Wike</title>
  <defs
     id="defs12" />
  <sodipodi:namedview
     pagecolor="#ffffff"
     bordercolor="#666666"
     borderopacity="1"
     objecttolerance="10"
     gridtolerance="10"
     guidetolerance="10"
     inkscape:pageopacity="0"
     inkscape:pageshadow="2"
     inkscape:window-width="1920"
     inkscape:window-height="1011"
     id="namedview10"
     showgrid="false"
     inkscape:zoom="14.75"
     inkscape:cx="-5.2542373"
     inkscape:cy="8"
     inkscape:window-x="0"
     inkscape:window-y="0"
     inkscape:window-maximized="1"
     inkscape:current-layer="svg7384"
     showborder="true"
     inkscape:showpageshadow="false"
     inkscape:pagecheckerboard="1" />
  <metadata
     id="metadata90">
    <rdf:RDF>
      <cc:Work
         rdf:about="">
        <dc:format>image/svg+xml</dc:format>
        <dc:type
           rdf:resource="http://purl.org/dc/dcmitype/StillImage" />
        <dc:title>Wike</dc:title>
      </cc:Work>
    </rdf:RDF>
  </metadata>
  <g
     id="g3443"
     transform="translate(-0.5058594)">
    <path
       style="color:#000000;fill:#241f31;fill-opacity:1;-inkscape-stroke:none"
       d="m 3.9863281,1.0005543 v 4.0000001 c 0,1.5521613 0.3092163,2.7887208 0.9003906,3.8457031 0.3981298,0.7118309 0.9002867,1.3301605 1.4853826,1.9576775 L 7.0400032,8.4960154 C 6.8838522,8.2855422 6.747654,8.0785163 6.6308594,7.869695 6.2072914,7.112382 5.9863281,6.3056306 5.9863281,5.0005544 V 1.0005543 Z"
       id="path8839"
       sodipodi:nodetypes="cssccsscc" />
    <path
       id="path6917"
       style="color:#000000;fill:#241f31;-inkscape-stroke:none"
       d="M 9.22492,1.9999925 6.00617,14.999992 h 2 l 0.78125,-3 h 4.4375 l 0.78125,3 h 2 L 12.78742,1.9999925 Z m 1.5625,2 h 0.4375 l 1.5,6 h -3.4375 z"
       sodipodi:nodetypes="cccccccccccccc" />
    <path
       style="color:#000000;fill:#241f31;fill-opacity:1;-inkscape-stroke:none"
       d="m 4.0058594,1.0005543 v 4.0000001 c 0,1.3050762 -0.2209632,2.1118275 -0.6445313,2.8691406 -0.423568,0.7573131 -1.1023388,1.4910108 -2.0625,2.451171 l 1.4140625,1.414063 C 3.6937544,10.754065 4.5162477,9.9032399 5.1074219,8.8462575 5.6985961,7.7892751 6.0058594,6.5527157 6.0058594,5.0005544 V 1.0005543 Z"
       id="path8548" />
    <path
       style="color:#000000;fill:#241f31;fill-opacity:1;-inkscape-stroke:none"
       d="m 1.0058594,4.0005544 v 2 h 6.5631821 l 0.5127509,-2 z"
       id="path8874"
       sodipodi:nodetypes="ccccc" />
  </g>
</svg>
