<?xml version="1.0" encoding="UTF-8" standalone="no"?>
<!-- Created with Inkscape (http://www.inkscape.org/) -->

<svg
   xmlns:dc="http://purl.org/dc/elements/1.1/"
   xmlns:cc="http://creativecommons.org/ns#"
   xmlns:rdf="http://www.w3.org/1999/02/22-rdf-syntax-ns#"
   xmlns:svg="http://www.w3.org/2000/svg"
   xmlns="http://www.w3.org/2000/svg"
   xmlns:sodipodi="http://sodipodi.sourceforge.net/DTD/sodipodi-0.dtd"
   xmlns:inkscape="http://www.inkscape.org/namespaces/inkscape"
   id="svg7384"
   width="16"
   height="16"
   version="1.1"
   sodipodi:docname="wike-article-random-symbolic.svg"
   inkscape:version="0.92.3 (2405546, 2018-03-11)">
  <title
     id="title819">Wike</title>
  <defs
     id="defs12" />
  <sodipodi:namedview
     pagecolor="#ffffff"
     bordercolor="#666666"
     borderopacity="1"
     objecttolerance="10"
     gridtolerance="10"
     guidetolerance="10"
     inkscape:pageopacity="0"
     inkscape:pageshadow="2"
     inkscape:window-width="1680"
     inkscape:window-height="986"
     id="namedview10"
     showgrid="false"
     inkscape:zoom="14.75"
     inkscape:cx="-5.220339"
     inkscape:cy="8"
     inkscape:window-x="0"
     inkscape:window-y="27"
     inkscape:window-maximized="1"
     inkscape:current-layer="svg7384"
     showborder="true"
     inkscape:showpageshadow="false" />
  <metadata
     id="metadata90">
    <rdf:RDF>
      <cc:Work
         rdf:about="">
        <dc:format>image/svg+xml</dc:format>
        <dc:type
           rdf:resource="http://purl.org/dc/dcmitype/StillImage" />
        <dc:title>Wike</dc:title>
      </cc:Work>
    </rdf:RDF>
  </metadata>
  <g
     id="g829">
    <path
       id="path4561"
       d="M 8,0 C 5.2504,0 3,2.2504 3,5 3,6.5862 3.84459,7.9034 5,8.8125 V 11 12 h 1 4 1 V 11 8.8125 C 12.1554,7.90336 13,6.5862 13,5 13,2.2504 10.7496,0 8,0 Z m 0,2 c 1.6687,0 3,1.3313 3,3 0,1.1158 -0.59507,2.0379 -1.5,2.5625 L 9,7.875 V 8.4375 10 H 7 V 8.4375 7.875 L 6.5,7.5625 C 5.59507,7.03788 5,6.1159 5,5 5,3.3313 6.3313,2 8,2 Z"
       style="color:#000000;text-indent:0;text-transform:none;fill:#bebebe"
       inkscape:connector-curvature="0" />
    <path
       id="path4488-4"
       d="m 6,15 v 1 h 4 v -1 z"
       style="color:#000000;text-indent:0;text-transform:none;fill:#bebebe"
       inkscape:connector-curvature="0" />
    <path
       id="path4488-4-7"
       d="m 5,13 v 1 h 6 v -1 z"
       style="color:#000000;text-indent:0;text-transform:none;fill:#bebebe"
       inkscape:connector-curvature="0" />
  </g>
</svg>
