<?xml version="1.0" encoding="UTF-8"?>
<svg width="16px" height="16px" version="1.1" viewBox="0 0 16 16" xmlns="http://www.w3.org/2000/svg"><path d="m7 2h8v2h-8z"/><path d="m7 7h8v2h-8z"/><path d="m2 1h2c0.55078 0 1 0.44922 1 1v2c0 0.55078-0.44922 1-1 1h-2c-0.55078 0-1-0.44922-1-1v-2c0-0.55078 0.44922-1 1-1z"/><path d="m2 6.0156h2c0.55078 0 1 0.44922 1 1v1.9805c0 0.55078-0.44922 1-1 1h-2c-0.55078 0-1-0.44922-1-1v-1.9805c0-0.55078 0.44922-1 1-1z"/><path d="m7 11.984h8v2h-8z"/><path d="m2 11h2c0.55078 0 1 0.44922 1 1v1.9805c0 0.55078-0.44922 1-1 1h-2c-0.55078 0-1-0.44922-1-1v-1.9805c0-0.55078 0.44922-1 1-1z"/></svg>
