<?xml version="1.0" encoding="UTF-8"?>
<svg width="16px" height="16px" version="1.1" viewBox="0 0 16 16" xmlns="http://www.w3.org/2000/svg"><path d="m3.9805 1v4c0 1.5508 0.30859 2.7891 0.89844 3.8477 0.39844 0.71094 0.90234 1.3281 1.4883 1.957l0.66797-2.3086c-0.15625-0.21094-0.29297-0.41797-0.41016-0.625-0.42578-0.75781-0.64453-1.5664-0.64453-2.8711v-4z"/><path d="m9.2188 2-3.2188 13h2l0.78125-3h4.4375l0.78125 3h2l-3.2188-13zm1.5625 2h0.4375l1.5 6h-3.4375z"/><path d="m4 1v4c0 1.3047-0.22266 2.1133-0.64453 2.8711-0.42578 0.75781-1.1016 1.4883-2.0625 2.4492l1.4141 1.4141c0.98047-0.98047 1.8047-1.832 2.3945-2.8867 0.58984-1.0586 0.89844-2.2969 0.89844-3.8477v-4z"/><path d="m1 4v2h6.5625l0.51172-2z"/></svg>
